<svg xmlns="http://www.w3.org/2000/svg" width="18.494" height="14" viewBox="0 0 18.494 14">
  <path id="redhat" d="M14.336,12.5c1.221,0,2.978-.25,2.978-1.7a1.016,1.016,0,0,0-.028-.333l-.721-3.144c-.166-.694-.314-1.008-1.535-1.618A14.2,14.2,0,0,0,11.423,4.43c-.564,0-.731.731-1.406.731-.647,0-1.128-.546-1.738-.546-.583,0-.962.4-1.258,1.211,0,0-.814,2.312-.925,2.645a1.253,1.253,0,0,0-.018.185c0,.9,3.532,3.838,8.258,3.838m3.172-1.1a5.126,5.126,0,0,1,.166.962c0,1.387-1.535,2.136-3.542,2.136-4.55,0-8.535-2.663-8.535-4.42a1.851,1.851,0,0,1,.148-.712C4.108,9.433,2,9.729,2,11.6c0,3.07,7.25,6.834,12.992,6.834,4.4,0,5.5-1.988,5.5-3.56,0-1.239-1.063-2.645-2.987-3.477" transform="translate(-2 -4.43)" fill="#fff"/>
</svg>
