<svg id="Layer_1" data-name="Layer 1" xmlns="http://www.w3.org/2000/svg" viewBox="0 0 10 10"><defs><style>.cls-1{fill:#fff;}</style></defs><path class="cls-1" d="M5,0A5,5,0,0,0,0,5a5,5,0,0,0,5,5,5,5,0,0,0,5-5A5,5,0,0,0,5,0ZM5,1A4,4,0,0,1,9,4.5H7.21l-.86-.85a.49.49,0,0,0-.83.23L5.05,5.72,4.49,2.9a.5.5,0,0,0-.42-.4.53.53,0,0,0-.52.28L2.69,4.5H1A4,4,0,0,1,5,1ZM5,9A4,4,0,0,1,1,5.5H3a.51.51,0,0,0,.45-.28l.35-.69L4.51,8.1A.5.5,0,0,0,5,8.5H5a.49.49,0,0,0,.48-.38L6.27,5l.38.37A.47.47,0,0,0,7,5.5H9A4,4,0,0,1,5,9Z"/></svg>