<svg xmlns="http://www.w3.org/2000/svg" width="17" height="17" viewBox="0 0 17 17">
  <g id="Icons" transform="translate(0.499 0.501)">
    <g>
      <path d="M-3024.69-9821h-6.621l-4.688-4.687v-6.622l4.688-4.69h6.621l4.69,4.69v6.622l-4.69,4.688Zm-1.692-14c-.012,0-.038.025-.078.079l-4.5,6.671a.175.175,0,0,0-.029.182.114.114,0,0,0,.108.067h2.108a.185.185,0,0,1,.153.054.14.14,0,0,1,.01.127l-1.012,4.72c-.012.055-.015.086-.008.094a.006.006,0,0,0,.005,0c.014,0,.039-.029.084-.086l4.5-6.711a.143.143,0,0,0,.031-.145.128.128,0,0,0-.122-.055h-2.1a.158.158,0,0,1-.133-.059.194.194,0,0,1-.015-.174l.987-4.668c.017-.055.022-.088.015-.1A.007.007,0,0,0-3026.382-9835Z" transform="translate(3036 9837)" fill="#d9070a" stroke="rgba(0,0,0,0)" stroke-miterlimit="10" stroke-width="1"/>
    </g>
  </g>
</svg>

