<svg xmlns="http://www.w3.org/2000/svg" width="19.41" height="19" viewBox="0 0 19.41 19">
  <g id="Group_13653" data-name="Group 13653" transform="translate(-1842.295 2)">
    <g id="Group_13652" data-name="Group 13652" transform="translate(1842.295 -2)">
      <path id="Path_487" data-name="Path 487" d="M7.451,0c.069.007.138.016.208.021A5.746,5.746,0,0,1,9.649.55a5.812,5.812,0,0,1,1.438.951,5.865,5.865,0,0,1,1.955,4.708c-.009.177-.033.353-.05.53a.049.049,0,0,0,.031.059q.472.225.942.454a.645.645,0,0,1,.392.616q0,2.087,0,4.174c0,.557,0,1.114,0,1.672a.632.632,0,0,1-.271.546,1.372,1.372,0,0,1-.279.136L7.441,16.946a.706.706,0,0,1-.548,0q-1.8-.72-3.592-1.438L.391,14.341a.652.652,0,0,1-.409-.6q0-2.95,0-5.9a.657.657,0,0,1,.449-.619A2.623,2.623,0,0,0,.7,7.1l.612-.3a.051.051,0,0,0,.034-.064,6.63,6.63,0,0,1-.052-1.058,6.1,6.1,0,0,1,.091-.85,5.868,5.868,0,0,1,1.255-2.69A5.916,5.916,0,0,1,4.354.721,5.72,5.72,0,0,1,6.135.092c.229-.04.462-.055.693-.081C6.849.008,6.87,0,6.891,0Zm-.3,1.308a4.647,4.647,0,0,0-.964.1A4.563,4.563,0,0,0,2.986,4.03a4.578,4.578,0,0,0-.367,1.422,3.948,3.948,0,0,0,.017.918,7.165,7.165,0,0,0,.19.914,2.821,2.821,0,0,0,.356.845.1.1,0,0,0,.043.035l3.9,1.56a.118.118,0,0,0,.1,0l2.169-.868,1.786-.713a.1.1,0,0,0,.049-.035c.073-.145.154-.288.212-.439a4.482,4.482,0,0,0,.245-.987,5.116,5.116,0,0,0,.043-1.218,4.619,4.619,0,0,0-.181-.93A4.559,4.559,0,0,0,7.155,1.308Zm.013,9.82A2.115,2.115,0,0,1,6.9,11.06c-.825-.327-1.649-.658-2.473-.986L1.571,8.938l-.276-.109c0,.025,0,.041,0,.057q0,2.17,0,4.341a.067.067,0,0,0,.051.074q.684.27,1.367.545l4.216,1.686.243.1Z" transform="translate(0.018)"/>
      <path id="Path_488" data-name="Path 488" d="M334.281,230.709a2.2,2.2,0,1,1-2.155-2.2A2.2,2.2,0,0,1,334.281,230.709Zm-1.3,0a.891.891,0,1,0-.887.895A.893.893,0,0,0,332.976,230.706Z" transform="translate(-324.898 -224.924)"/>
    </g>
    <g id="Ellipse_147" data-name="Ellipse 147" transform="translate(1851.705 7)" fill="#da1914" stroke="#fff" stroke-width="2">
      <circle cx="5" cy="5" r="5" stroke="none"/>
      <circle cx="5" cy="5" r="4" fill="none"/>
    </g>
  </g>
</svg>
